<svg width="64" height="64" viewBox="0 0 64 64" fill="none" xmlns="http://www.w3.org/2000/svg">
<g clip-path="url(#clip0_58_55)">
<rect width="64" height="64" rx="8" fill="white"/>
<path d="M13.5421 46C13.2661 46 13.0261 45.922 12.8221 45.766L9.88813 43.084L6.91813 39.214C6.78613 39.046 6.70213 38.944 6.66613 38.908C6.63013 38.86 6.61213 38.752 6.61213 38.584V29.404C6.61213 29.236 6.63013 29.128 6.66613 29.08C6.71413 29.032 6.79813 28.93 6.91813 28.774L9.67213 25.21L12.8221 22.24C12.9541 22.132 13.0561 22.066 13.1281 22.042C13.2121 22.018 13.3501 22.006 13.5421 22.006H17.9881C18.2881 22.006 18.4381 22.156 18.4381 22.456V25.336C18.4381 25.432 18.4261 25.534 18.4021 25.642C18.3901 25.738 18.3301 25.822 18.2221 25.894L14.8381 28.216L12.6241 31.06V36.946L14.8741 39.79L18.2221 42.094C18.3181 42.154 18.3781 42.226 18.4021 42.31C18.4261 42.394 18.4381 42.484 18.4381 42.58V45.55C18.4381 45.85 18.2881 46 17.9881 46H13.5421ZM22.3756 46C22.0756 46 21.9256 45.85 21.9256 45.55V22.456C21.9256 22.156 22.0756 22.006 22.3756 22.006H27.4696C27.7696 22.006 27.9196 22.156 27.9196 22.456V31.006H32.3656V22.456C32.3656 22.156 32.5156 22.006 32.8156 22.006H37.9096C38.2096 22.006 38.3596 22.156 38.3596 22.456V45.55C38.3596 45.85 38.2096 46 37.9096 46H32.8156C32.5156 46 32.3656 45.85 32.3656 45.55V35.794H27.9196V45.55C27.9196 45.85 27.7696 46 27.4696 46H22.3756ZM47.4018 46C47.1018 46 46.9518 45.85 46.9518 45.55V38.53L42.1278 33.724C42.0438 33.628 41.9898 33.544 41.9658 33.472C41.9538 33.388 41.9478 33.292 41.9478 33.184V22.456C41.9478 22.156 42.0978 22.006 42.3978 22.006H47.4918C47.7918 22.006 47.9418 22.156 47.9418 22.456V33.346H51.9738V22.456C51.9738 22.156 52.1238 22.006 52.4238 22.006H57.5178C57.8178 22.006 57.9678 22.156 57.9678 22.456V33.184C57.9678 33.292 57.9618 33.388 57.9498 33.472C57.9378 33.544 57.8838 33.628 57.7878 33.724L52.9818 38.53V45.55C52.9818 45.85 52.8318 46 52.5318 46H47.4018Z" fill="#1683A4"/>
</g>
<defs>
<clipPath id="clip0_58_55">
<rect width="64" height="64" rx="8" fill="white"/>
</clipPath>
</defs>
</svg>
