<svg width="52" height="24" viewBox="0 0 52 24" fill="none" xmlns="http://www.w3.org/2000/svg">
<path d="M7.54213 24C7.26613 24 7.02613 23.922 6.82213 23.766L3.88813 21.084L0.918125 17.214C0.786125 17.046 0.702125 16.944 0.666125 16.908C0.630125 16.86 0.612125 16.752 0.612125 16.584V7.404C0.612125 7.236 0.630125 7.128 0.666125 7.08C0.714125 7.032 0.798125 6.93 0.918125 6.774L3.67213 3.21L6.82213 0.239999C6.95413 0.131998 7.05613 0.0659981 7.12813 0.0419984C7.21213 0.0179987 7.35013 0.00599885 7.54213 0.00599885H11.9881C12.2881 0.00599885 12.4381 0.155999 12.4381 0.455998V3.336C12.4381 3.432 12.4261 3.534 12.4021 3.642C12.3901 3.738 12.3301 3.822 12.2221 3.894L8.83813 6.216L6.62413 9.06V14.946L8.87413 17.79L12.2221 20.094C12.3181 20.154 12.3781 20.226 12.4021 20.31C12.4261 20.394 12.4381 20.484 12.4381 20.58V23.55C12.4381 23.85 12.2881 24 11.9881 24H7.54213ZM16.3756 24C16.0756 24 15.9256 23.85 15.9256 23.55V0.455998C15.9256 0.155999 16.0756 0.00599885 16.3756 0.00599885H21.4696C21.7696 0.00599885 21.9196 0.155999 21.9196 0.455998V9.006H26.3656V0.455998C26.3656 0.155999 26.5156 0.00599885 26.8156 0.00599885H31.9096C32.2096 0.00599885 32.3596 0.155999 32.3596 0.455998V23.55C32.3596 23.85 32.2096 24 31.9096 24H26.8156C26.5156 24 26.3656 23.85 26.3656 23.55V13.794H21.9196V23.55C21.9196 23.85 21.7696 24 21.4696 24H16.3756ZM41.4018 24C41.1018 24 40.9518 23.85 40.9518 23.55V16.53L36.1278 11.724C36.0438 11.628 35.9898 11.544 35.9658 11.472C35.9538 11.388 35.9478 11.292 35.9478 11.184V0.455998C35.9478 0.155999 36.0978 0.00599885 36.3978 0.00599885H41.4918C41.7918 0.00599885 41.9418 0.155999 41.9418 0.455998V11.346H45.9738V0.455998C45.9738 0.155999 46.1238 0.00599885 46.4238 0.00599885H51.5178C51.8178 0.00599885 51.9678 0.155999 51.9678 0.455998V11.184C51.9678 11.292 51.9618 11.388 51.9498 11.472C51.9378 11.544 51.8838 11.628 51.7878 11.724L46.9818 16.53V23.55C46.9818 23.85 46.8318 24 46.5318 24H41.4018Z" fill="white"/>
</svg>
